<svg xmlns="http://www.w3.org/2000/svg" viewBox="0 0 100 100">
  <defs>
    <linearGradient id="grad" x1="0%" y1="0%" x2="100%" y2="100%">
      <stop offset="0%" style="stop-color:#8B5CF6;stop-opacity:1" />
      <stop offset="100%" style="stop-color:#3B82F6;stop-opacity:1" />
    </linearGradient>
  </defs>
  
  <!-- Background with rounded corners -->
  <rect width="100" height="100" rx="20" fill="url(#grad)"/>
  
  <!-- Code brackets -->
  <path d="M 30 30 L 20 50 L 30 70" stroke="white" stroke-width="6" fill="none" stroke-linecap="round" stroke-linejoin="round"/>
  <path d="M 70 30 L 80 50 L 70 70" stroke="white" stroke-width="6" fill="none" stroke-linecap="round" stroke-linejoin="round"/>
  
  <!-- Forward slash -->
  <line x1="55" y1="30" x2="45" y2="70" stroke="white" stroke-width="6" stroke-linecap="round"/>
  
  <!-- Sparkles -->
  <circle cx="15" cy="20" r="2.5" fill="white" opacity="0.8"/>
  <circle cx="85" cy="25" r="3" fill="white" opacity="0.9"/>
  <circle cx="20" cy="85" r="2" fill="white" opacity="0.7"/>
  <circle cx="85" cy="80" r="2.5" fill="white" opacity="0.8"/>
  
  <!-- Star sparkle top right -->
  <path d="M 90 15 L 91 17 L 93 17 L 91.5 18.5 L 92 20.5 L 90 19 L 88 20.5 L 88.5 18.5 L 87 17 L 89 17 Z" fill="white" opacity="0.9"/>
  
  <!-- Star sparkle bottom left -->
  <path d="M 12 75 L 13 77 L 15 77 L 13.5 78.5 L 14 80.5 L 12 79 L 10 80.5 L 10.5 78.5 L 9 77 L 11 77 Z" fill="white" opacity="0.8"/>
</svg>
